<svg width="20" height="20" viewBox="0 0 20 20" fill="none" xmlns="http://www.w3.org/2000/svg">
<g clip-path="url(#clip0_11049_5956)">
<path d="M1.66602 5.00002C1.66602 4.11597 2.01721 3.26812 2.64233 2.643C3.26745 2.01788 4.11529 1.66669 4.99935 1.66669H14.9993C15.8834 1.66669 16.7312 2.01788 17.3564 2.643C17.9815 3.26812 18.3327 4.11597 18.3327 5.00002V15C18.3327 15.8841 17.9815 16.7319 17.3564 17.357C16.7312 17.9822 15.8834 18.3334 14.9993 18.3334H4.99935C4.11529 18.3334 3.26745 17.9822 2.64233 17.357C2.01721 16.7319 1.66602 15.8841 1.66602 15V5.00002Z" stroke="#070A1C" style="stroke:#070A1C;stroke:color(display-p3 0.0275 0.0392 0.1098);stroke-opacity:1;" stroke-width="1.66667" stroke-linecap="round" stroke-linejoin="round"/>
<path d="M7.08236 9.16668C8.23295 9.16668 9.16569 8.23394 9.16569 7.08335C9.16569 5.93276 8.23295 5.00002 7.08236 5.00002C5.93176 5.00002 4.99902 5.93276 4.99902 7.08335C4.99902 8.23394 5.93176 9.16668 7.08236 9.16668Z" stroke="#070A1C" style="stroke:#070A1C;stroke:color(display-p3 0.0275 0.0392 0.1098);stroke-opacity:1;" stroke-width="1.66667" stroke-linecap="round" stroke-linejoin="round"/>
<path d="M12.104 10.5175L4.99902 18.3334H15.1099C15.9645 18.3334 16.7842 17.9938 17.3885 17.3895C17.9928 16.7852 18.3324 15.9655 18.3324 15.1109V15C18.3324 14.6117 18.1865 14.4625 17.924 14.175L14.5657 10.5125C14.4092 10.3418 14.2188 10.2055 14.0067 10.1125C13.7946 10.0195 13.5654 9.97164 13.3338 9.97211C13.1021 9.97258 12.8731 10.0213 12.6614 10.1152C12.4497 10.2091 12.2598 10.3462 12.104 10.5175Z" stroke="#070A1C" style="stroke:#070A1C;stroke:color(display-p3 0.0275 0.0392 0.1098);stroke-opacity:1;" stroke-width="1.66667" stroke-linecap="round" stroke-linejoin="round"/>
</g>
<defs>
<clipPath id="clip0_11049_5956">
<rect width="20" height="20" fill="white" style="fill:white;fill-opacity:1;"/>
</clipPath>
</defs>
</svg>
