<svg width="20" height="20" viewBox="0 0 20 20" fill="none" xmlns="http://www.w3.org/2000/svg">
<circle cx="2.34996" cy="2.34996" r="2.34996" transform="matrix(-1 0 0 1 12.3076 7.65022)" stroke="#070A1C" style="stroke:#070A1C;stroke:color(display-p3 0.0275 0.0392 0.1098);stroke-opacity:1;" stroke-width="1.8"/>
<path d="M9.95703 2.16699V1.26699H9.95701L9.95703 2.16699ZM13.4824 4.46777L13.0324 5.2472L13.0325 5.24721L13.4824 4.46777ZM15.4404 9.2168L14.5404 9.21677V9.2168H15.4404ZM13.4824 15.5322L13.0325 14.7528L13.0324 14.7528L13.4824 15.5322ZM9.95703 17.833L9.95701 18.733H9.95703V17.833ZM6.43262 15.5322L6.88272 14.7529L6.88262 14.7528L6.43262 15.5322ZM3.69043 10H4.59043L4.59043 9.99993L3.69043 10ZM6.43262 4.46777L6.88262 5.2472L6.88274 5.24713L6.43262 4.46777ZM7.51348 3.08082L6.64799 2.83396V2.83396L7.51348 3.08082ZM8.14411 2.37811L7.93647 1.50239L8.14411 2.37811ZM4.84036 15.2564L4.67897 14.371L4.84036 15.2564ZM8.14408 17.6219L7.93643 18.4976V18.4976L8.14408 17.6219ZM7.51347 16.9192L6.64799 17.1661L7.51347 16.9192ZM12.3999 16.9191L11.5346 16.6716L12.3999 16.9191ZM15.9818 15.003L15.2899 14.4275L15.9818 15.003ZM15.0738 15.2565L15.2351 14.3711L15.0738 15.2565ZM16.7688 6.13019L15.987 6.57604L16.7688 6.13019ZM16.3588 7.35561L15.8106 6.64184L16.3588 7.35561ZM2.94117 11.718L2.32833 11.0589L2.94117 11.718ZM4.84033 4.74286L4.67839 5.62817L4.84033 4.74286ZM17.4005 12.4424L16.5453 12.1619L17.4005 12.4424ZM12.3999 3.08089L13.2652 2.83334L12.3999 3.08089ZM9.95703 2.16699V3.06699C10.51 3.06699 11.0469 3.13191 11.5612 3.25384L11.7689 2.37812L11.9765 1.5024C11.3277 1.34856 10.6514 1.26699 9.95703 1.26699V2.16699ZM12.3999 3.08089L11.5346 3.32843C11.7577 4.10823 12.2728 4.80863 13.0324 5.2472L13.4824 4.46777L13.9324 3.68835C13.5939 3.49288 13.3652 3.18316 13.2652 2.83334L12.3999 3.08089ZM13.4824 4.46777L13.0325 5.24721C13.7263 5.64775 14.507 5.76137 15.2357 5.6281L15.0738 4.74278L14.9119 3.85746C14.5854 3.91717 14.2409 3.86645 13.9324 3.68833L13.4824 4.46777ZM15.982 4.99598L15.2903 5.57176C15.5509 5.88484 15.7843 6.22076 15.987 6.57604L16.7688 6.13019L17.5506 5.68434C17.2951 5.23633 17.0012 4.81357 16.6737 4.42019L15.982 4.99598ZM16.3588 7.35561L15.8106 6.64184C15.0403 7.23347 14.5405 8.16611 14.5404 9.21677L15.4404 9.2168L16.3404 9.21682C16.3404 8.74986 16.5606 8.33546 16.9071 8.06937L16.3588 7.35561ZM15.4404 9.2168H14.5404C14.5404 10.5 15.2843 11.6057 16.3594 12.1327L16.7555 11.3246L17.1517 10.5165C16.669 10.2798 16.3404 9.78641 16.3404 9.2168H15.4404ZM17.4005 12.4424L16.5453 12.1619C16.2711 12.9978 15.8414 13.7642 15.2899 14.4275L15.9818 15.003L16.6738 15.5784C17.3674 14.7444 17.9093 13.7787 18.2556 12.723L17.4005 12.4424ZM15.0738 15.2565L15.2351 14.3711C14.5062 14.2382 13.7257 14.3526 13.0325 14.7528L13.4824 15.5322L13.9324 16.3117C14.2412 16.1334 14.5861 16.0824 14.9125 16.1419L15.0738 15.2565ZM13.4824 15.5322L13.0324 14.7528C12.2728 15.1914 11.7577 15.8918 11.5346 16.6716L12.3999 16.9191L13.2652 17.1667C13.3653 16.8168 13.5939 16.5071 13.9324 16.3116L13.4824 15.5322ZM11.7689 17.6219L11.5612 16.7462C11.047 16.8681 10.51 16.933 9.95703 16.933V17.833V18.733C10.6514 18.733 11.3277 18.6514 11.9765 18.4976L11.7689 17.6219ZM9.95703 17.833L9.95705 16.933C9.40347 16.933 8.86618 16.8682 8.35173 16.7462L8.14408 17.6219L7.93643 18.4976C8.58576 18.6516 9.26238 18.733 9.95701 18.733L9.95703 17.833ZM7.51347 16.9192L8.37895 16.6723C8.15665 15.893 7.6429 15.1919 6.88272 14.7529L6.43262 15.5322L5.98251 16.3116C6.3202 16.5066 6.5481 16.8159 6.64799 17.1661L7.51347 16.9192ZM6.43262 15.5322L6.88262 14.7528C6.18914 14.3524 5.40814 14.2381 4.67897 14.371L4.84036 15.2564L5.00176 16.1418C5.32842 16.0823 5.6737 16.1333 5.98262 16.3116L6.43262 15.5322ZM3.93221 15.0028L4.62437 14.4276C4.12605 13.828 3.72766 13.1437 3.45325 12.3996L2.60884 12.711L1.76443 13.0224C2.11065 13.9612 2.61291 14.8235 3.24005 15.5781L3.93221 15.0028ZM2.94117 11.718L3.55401 12.3771C4.18979 11.7859 4.59043 10.9399 4.59043 10H3.69043H2.79043C2.79043 10.4181 2.61406 10.7932 2.32833 11.0589L2.94117 11.718ZM3.69043 10L4.59043 9.99993C4.59036 9.0604 4.19024 8.21388 3.55442 7.62233L2.94137 8.28125L2.32833 8.94017C2.61391 9.20587 2.7904 9.5815 2.79043 10.0001L3.69043 10ZM2.609 7.2878L3.45338 7.59928C3.72787 6.85518 4.12616 6.17088 4.62433 5.57148L3.93216 4.99622L3.24 4.42097C2.6129 5.17553 2.11084 6.03778 1.76462 6.97631L2.609 7.2878ZM4.84033 4.74286L4.67839 5.62817C5.40742 5.76152 6.18861 5.64788 6.88262 5.2472L6.43262 4.46777L5.98262 3.68835C5.674 3.86653 5.32906 3.91732 5.00227 3.85755L4.84033 4.74286ZM6.43262 4.46777L6.88274 5.24713C7.64287 4.80811 8.15665 4.1071 8.37896 3.32769L7.51348 3.08082L6.64799 2.83396C6.54812 3.18412 6.32022 3.49337 5.9825 3.68842L6.43262 4.46777ZM8.14411 2.37811L8.35175 3.25383C8.86621 3.13185 9.40352 3.067 9.95705 3.06699L9.95703 2.16699L9.95701 1.26699C9.26242 1.26701 8.58578 1.34843 7.93647 1.50239L8.14411 2.37811ZM7.51348 3.08082L8.37896 3.32769C8.38768 3.2971 8.39812 3.271 8.40847 3.25046C8.4189 3.22979 8.42722 3.21874 8.43031 3.21506C8.4332 3.21161 8.42871 3.21789 8.41432 3.22733C8.39891 3.23746 8.37725 3.24778 8.35175 3.25383L8.14411 2.37811L7.93647 1.50239C7.15631 1.68737 6.78376 2.35796 6.64799 2.83396L7.51348 3.08082ZM2.94137 8.28125L3.55442 7.62233C3.52789 7.59765 3.50614 7.57238 3.48992 7.54933C3.47358 7.52608 3.46621 7.50988 3.46367 7.50315C3.46126 7.49678 3.4651 7.50415 3.46583 7.5239C3.46662 7.54544 3.46325 7.57254 3.45338 7.59928L2.609 7.2878L1.76462 6.97631C1.45045 7.82799 1.93121 8.5707 2.32833 8.94017L2.94137 8.28125ZM4.84036 15.2564L4.67897 14.371C4.64772 14.3767 4.61974 14.3789 4.59678 14.3787C4.57367 14.3785 4.56007 14.3759 4.55536 14.3748C4.55096 14.3737 4.55847 14.3749 4.5732 14.3835C4.58897 14.3928 4.60772 14.4075 4.62437 14.4276L3.93221 15.0028L3.24005 15.5781C3.75126 16.1932 4.51538 16.2305 5.00176 16.1418L4.84036 15.2564ZM8.14408 17.6219L8.35173 16.7462C8.37723 16.7522 8.39889 16.7625 8.4143 16.7727C8.42869 16.7821 8.43318 16.7884 8.43029 16.785C8.4272 16.7813 8.41889 16.7702 8.40846 16.7496C8.39811 16.729 8.38768 16.7029 8.37895 16.6723L7.51347 16.9192L6.64799 17.1661C6.78376 17.6421 7.15631 18.3126 7.93643 18.4976L8.14408 17.6219ZM12.3999 16.9191L11.5346 16.6716C11.5258 16.7023 11.5153 16.7285 11.5049 16.7491C11.4944 16.7699 11.486 16.781 11.4829 16.7848C11.48 16.7883 11.4844 16.782 11.4987 16.7726C11.5141 16.7625 11.5358 16.7522 11.5612 16.7462L11.7689 17.6219L11.9765 18.4976C12.7566 18.3126 13.1291 17.6421 13.2652 17.1667L12.3999 16.9191ZM15.9818 15.003L15.2899 14.4275C15.3065 14.4075 15.3252 14.3928 15.341 14.3836C15.3556 14.375 15.3631 14.3738 15.3587 14.3748C15.354 14.376 15.3404 14.3785 15.3173 14.3787C15.2943 14.3789 15.2664 14.3768 15.2351 14.3711L15.0738 15.2565L14.9125 16.1419C15.3989 16.2306 16.1626 16.1931 16.6738 15.5784L15.9818 15.003ZM16.7688 6.13019L15.987 6.57604C15.9702 6.54665 15.9612 6.5112 15.9604 6.48088C15.9597 6.45472 15.9654 6.44805 15.9594 6.46345C15.9533 6.47916 15.9388 6.50749 15.9109 6.5431C15.8832 6.57832 15.8486 6.61271 15.8106 6.64184L16.3588 7.35561L16.9071 8.06937C17.2072 7.83885 17.4831 7.51102 17.6367 7.11671C17.7954 6.70915 17.835 6.18304 17.5506 5.68434L16.7688 6.13019ZM2.60884 12.711L3.45325 12.3996C3.46311 12.4263 3.46648 12.4534 3.46569 12.475C3.46496 12.4948 3.46111 12.5022 3.4635 12.4959C3.46602 12.4892 3.47336 12.4731 3.48966 12.4499C3.50583 12.4269 3.52753 12.4017 3.55401 12.3771L2.94117 11.718L2.32833 11.0589C1.93096 11.4283 1.45041 12.1709 1.76443 13.0224L2.60884 12.711ZM15.0738 4.74278L15.2357 5.6281C15.2669 5.6224 15.2948 5.62021 15.3177 5.6204C15.3407 5.62059 15.3543 5.62313 15.359 5.62428C15.3634 5.62535 15.3559 5.62414 15.3413 5.61556C15.3256 5.60637 15.3069 5.59172 15.2903 5.57176L15.982 4.99598L16.6737 4.42019C16.1624 3.80588 15.3988 3.76844 14.9119 3.85746L15.0738 4.74278ZM3.93216 4.99622L4.62433 5.57148C4.60766 5.59153 4.5889 5.60627 4.57309 5.61552C4.55834 5.62417 4.55079 5.62539 4.55514 5.62433C4.55981 5.6232 4.57335 5.62065 4.5964 5.62046C4.6193 5.62027 4.64721 5.62247 4.67839 5.62817L4.84033 4.74286L5.00227 3.85755C4.5156 3.76853 3.75131 3.80575 3.24 4.42097L3.93216 4.99622ZM16.7555 11.3246L16.3594 12.1327C16.4025 12.1539 16.4434 12.1808 16.4776 12.2098C16.5121 12.2392 16.5318 12.2641 16.5409 12.2782C16.5498 12.292 16.5429 12.2865 16.5383 12.2606C16.533 12.2306 16.5348 12.194 16.5453 12.1619L17.4005 12.4424L18.2556 12.723C18.4344 12.178 18.2908 11.671 18.0543 11.3037C17.8255 10.9484 17.4905 10.6826 17.1517 10.5165L16.7555 11.3246ZM11.7689 2.37812L11.5612 3.25384C11.5357 3.2478 11.5141 3.23748 11.4987 3.22738C11.4844 3.21796 11.4799 3.21172 11.4829 3.21524C11.486 3.21899 11.4944 3.23012 11.5049 3.25089C11.5153 3.27152 11.5258 3.29773 11.5346 3.32843L12.3999 3.08089L13.2652 2.83334C13.1291 2.35794 12.7566 1.68737 11.9765 1.5024L11.7689 2.37812Z" fill="#070A1C" style="fill:#070A1C;fill:color(display-p3 0.0275 0.0392 0.1098);fill-opacity:1;"/>
</svg>
