<svg width="131" height="40" viewBox="0 0 131 40" fill="none" xmlns="http://www.w3.org/2000/svg">
<rect x="0.5" y="0.5" width="130" height="39" rx="19.5" fill="white" style="fill:white;fill-opacity:1;"/>
<rect x="0.5" y="0.5" width="130" height="39" rx="19.5" stroke="#543C52" style="stroke:#543C52;stroke:color(display-p3 0.3294 0.2353 0.3216);stroke-opacity:1;"/>
<path d="M11.666 15.0001C11.666 14.116 12.0172 13.2682 12.6423 12.6431C13.2674 12.0179 14.1153 11.6667 14.9993 11.6667H24.9993C25.8834 11.6667 26.7312 12.0179 27.3564 12.6431C27.9815 13.2682 28.3327 14.116 28.3327 15.0001V25.0001C28.3327 25.8841 27.9815 26.732 27.3564 27.3571C26.7312 27.9822 25.8834 28.3334 24.9993 28.3334H14.9993C14.1153 28.3334 13.2674 27.9822 12.6423 27.3571C12.0172 26.732 11.666 25.8841 11.666 25.0001V15.0001Z" stroke="#543C52" style="stroke:#543C52;stroke:color(display-p3 0.3294 0.2353 0.3216);stroke-opacity:1;" stroke-width="1.66667" stroke-linecap="round" stroke-linejoin="round"/>
<path d="M17.0833 19.1667C18.2339 19.1667 19.1667 18.2339 19.1667 17.0833C19.1667 15.9327 18.2339 15 17.0833 15C15.9327 15 15 15.9327 15 17.0833C15 18.2339 15.9327 19.1667 17.0833 19.1667Z" stroke="#543C52" style="stroke:#543C52;stroke:color(display-p3 0.3294 0.2353 0.3216);stroke-opacity:1;" stroke-width="1.66667" stroke-linecap="round" stroke-linejoin="round"/>
<path d="M22.105 20.5176L15 28.3334H25.1108C25.9655 28.3334 26.7851 27.9939 27.3895 27.3896C27.9938 26.7852 28.3333 25.9656 28.3333 25.1109V25.0001C28.3333 24.6118 28.1875 24.4626 27.925 24.1751L24.5667 20.5126C24.4101 20.3418 24.2198 20.2056 24.0076 20.1126C23.7955 20.0195 23.5664 19.9717 23.3347 19.9722C23.1031 19.9726 22.8741 20.0214 22.6624 20.1153C22.4507 20.2092 22.2608 20.3462 22.105 20.5176Z" stroke="#543C52" style="stroke:#543C52;stroke:color(display-p3 0.3294 0.2353 0.3216);stroke-opacity:1;" stroke-width="1.66667" stroke-linecap="round" stroke-linejoin="round"/>
<path d="M47.98 23.558H48.736V26.68H47.21V25H41.89V26.68H40.28V23.558H40.826C41.1433 23.558 41.3813 23.3807 41.54 23.026C41.708 22.662 41.792 22.032 41.792 21.136V15.2H47.98V23.558ZM42.912 23.558H46.356V16.642H43.444V21.108C43.444 22.1067 43.2667 22.9233 42.912 23.558ZM55.5162 24.202C54.9002 24.846 54.0648 25.168 53.0102 25.168C51.9555 25.168 51.1155 24.846 50.4902 24.202C49.8742 23.5487 49.5662 22.7273 49.5662 21.738C49.5662 20.7487 49.8742 19.932 50.4902 19.288C51.1155 18.6347 51.9555 18.308 53.0102 18.308C54.0648 18.308 54.9002 18.6347 55.5162 19.288C56.1415 19.932 56.4542 20.7487 56.4542 21.738C56.4542 22.7273 56.1415 23.5487 55.5162 24.202ZM51.5962 23.236C51.9415 23.6187 52.4128 23.81 53.0102 23.81C53.6075 23.81 54.0742 23.6187 54.4102 23.236C54.7555 22.8533 54.9282 22.354 54.9282 21.738C54.9282 21.122 54.7555 20.6227 54.4102 20.24C54.0742 19.8573 53.6075 19.666 53.0102 19.666C52.4128 19.666 51.9415 19.8573 51.5962 20.24C51.2602 20.6227 51.0922 21.122 51.0922 21.738C51.0922 22.354 51.2602 22.8533 51.5962 23.236ZM63.356 23.558H64.112V26.68H62.586V25H58.47V26.68H56.86V23.558H57.532C57.896 23.3247 58.078 22.8393 58.078 22.102V18.476H63.356V23.558ZM59.156 23.74H61.83V19.736H59.604V22.032C59.604 22.6947 59.4547 23.264 59.156 23.74ZM68.1491 25.168C67.1317 25.168 66.3431 24.846 65.7831 24.202C65.2231 23.558 64.9431 22.7367 64.9431 21.738C64.9431 20.7487 65.2371 19.932 65.8251 19.288C66.4131 18.6347 67.2017 18.308 68.1911 18.308C68.6297 18.308 69.0311 18.4013 69.3951 18.588C69.7591 18.7747 70.0391 19.0313 70.2351 19.358V18.476H71.7611V25H70.2351V24.118C70.0484 24.4353 69.7544 24.692 69.3531 24.888C68.9611 25.0747 68.5597 25.168 68.1491 25.168ZM68.3731 23.81C68.9984 23.81 69.4744 23.614 69.8011 23.222C70.1371 22.83 70.3051 22.3353 70.3051 21.738C70.3051 21.1407 70.1371 20.646 69.8011 20.254C69.4744 19.862 68.9984 19.666 68.3731 19.666C67.7851 19.666 67.3184 19.862 66.9731 20.254C66.6371 20.6367 66.4691 21.1313 66.4691 21.738C66.4691 22.3447 66.6371 22.844 66.9731 23.236C67.3184 23.6187 67.7851 23.81 68.3731 23.81ZM78.3522 18.476V19.89H76.4622V25H74.9362V19.89H73.0742V18.476H78.3522ZM84.0856 20.8L81.1876 24.454V25H79.6616V18.476H81.1876V22.746L84.0856 19.064V18.476H85.6116V25H84.0856V20.8ZM98.3716 21.738C98.3716 22.634 98.0682 23.418 97.4616 24.09C96.8549 24.762 96.0896 25.1167 95.1656 25.154V27.94H93.6256V25.154C92.7016 25.1167 91.9362 24.762 91.3296 24.09C90.7229 23.418 90.4196 22.634 90.4196 21.738C90.4196 20.8513 90.7229 20.072 91.3296 19.4C91.9362 18.7187 92.7016 18.3593 93.6256 18.322V15.2H95.1656V18.322C96.0896 18.3593 96.8549 18.7187 97.4616 19.4C98.0682 20.072 98.3716 20.8513 98.3716 21.738ZM91.9456 21.738C91.9456 22.3167 92.1042 22.816 92.4216 23.236C92.7389 23.656 93.1729 23.8707 93.7236 23.88V19.596C93.1729 19.6053 92.7389 19.82 92.4216 20.24C92.1042 20.6507 91.9456 21.15 91.9456 21.738ZM95.0676 23.88C95.6182 23.8707 96.0522 23.656 96.3696 23.236C96.6869 22.816 96.8456 22.3167 96.8456 21.738C96.8456 21.15 96.6869 20.6507 96.3696 20.24C96.0522 19.82 95.6182 19.6053 95.0676 19.596V23.88ZM105.35 24.202C104.734 24.846 103.899 25.168 102.844 25.168C101.789 25.168 100.949 24.846 100.324 24.202C99.708 23.5487 99.4 22.7273 99.4 21.738C99.4 20.7487 99.708 19.932 100.324 19.288C100.949 18.6347 101.789 18.308 102.844 18.308C103.899 18.308 104.734 18.6347 105.35 19.288C105.975 19.932 106.288 20.7487 106.288 21.738C106.288 22.7273 105.975 23.5487 105.35 24.202ZM101.43 23.236C101.775 23.6187 102.247 23.81 102.844 23.81C103.441 23.81 103.908 23.6187 104.244 23.236C104.589 22.8533 104.762 22.354 104.762 21.738C104.762 21.122 104.589 20.6227 104.244 20.24C103.908 19.8573 103.441 19.666 102.844 19.666C102.247 19.666 101.775 19.8573 101.43 20.24C101.094 20.6227 100.926 21.122 100.926 21.738C100.926 22.354 101.094 22.8533 101.43 23.236ZM112.112 18.476V19.89H110.222V25H108.696V19.89H106.834V18.476H112.112ZM118.608 24.202C117.992 24.846 117.156 25.168 116.102 25.168C115.047 25.168 114.207 24.846 113.582 24.202C112.966 23.5487 112.658 22.7273 112.658 21.738C112.658 20.7487 112.966 19.932 113.582 19.288C114.207 18.6347 115.047 18.308 116.102 18.308C117.156 18.308 117.992 18.6347 118.608 19.288C119.233 19.932 119.546 20.7487 119.546 21.738C119.546 22.7273 119.233 23.5487 118.608 24.202ZM114.688 23.236C115.033 23.6187 115.504 23.81 116.102 23.81C116.699 23.81 117.166 23.6187 117.502 23.236C117.847 22.8533 118.02 22.354 118.02 21.738C118.02 21.122 117.847 20.6227 117.502 20.24C117.166 19.8573 116.699 19.666 116.102 19.666C115.504 19.666 115.033 19.8573 114.688 20.24C114.352 20.6227 114.184 21.122 114.184 21.738C114.184 22.354 114.352 22.8533 114.688 23.236Z" fill="#543C52" style="fill:#543C52;fill:color(display-p3 0.3294 0.2353 0.3216);fill-opacity:1;"/>
</svg>
