<svg width="164" height="40" viewBox="0 0 164 40" fill="none" xmlns="http://www.w3.org/2000/svg">
<rect x="0.5" y="0.5" width="163" height="39" rx="19.5" fill="white" style="fill:white;fill-opacity:1;"/>
<rect x="0.5" y="0.5" width="163" height="39" rx="19.5" stroke="#543C52" style="stroke:#543C52;stroke:color(display-p3 0.3294 0.2353 0.3216);stroke-opacity:1;"/>
<path d="M26.4902 21.0801H21.0816V26.4887C21.0816 26.7756 20.9676 27.0508 20.7647 27.2536C20.5619 27.4565 20.2867 27.5705 19.9998 27.5705C19.7129 27.5705 19.4378 27.4565 19.2349 27.2536C19.0321 27.0508 18.9181 26.7756 18.9181 26.4887V21.0801H13.5095C13.2226 21.0801 12.9474 20.9661 12.7446 20.7633C12.5417 20.5604 12.4277 20.2853 12.4277 19.9984C12.4277 19.7115 12.5417 19.4363 12.7446 19.2335C12.9474 19.0306 13.2226 18.9166 13.5095 18.9166H18.9181V13.508C18.9181 13.2211 19.0321 12.946 19.2349 12.7431C19.4378 12.5402 19.7129 12.4263 19.9998 12.4263C20.2867 12.4263 20.5619 12.5402 20.7647 12.7431C20.9676 12.946 21.0816 13.2211 21.0816 13.508V18.9166H26.4902C26.7771 18.9166 27.0522 19.0306 27.2551 19.2335C27.458 19.4363 27.5719 19.7115 27.5719 19.9984C27.5719 20.2853 27.458 20.5604 27.2551 20.7633C27.0522 20.9661 26.7771 21.0801 26.4902 21.0801Z" fill="#543C52" style="fill:#543C52;fill:color(display-p3 0.3294 0.2353 0.3216);fill-opacity:1;"/>
<path d="M45.586 25.238C44.018 25.238 42.7767 24.762 41.862 23.81C40.9473 22.858 40.49 21.6213 40.49 20.1C40.49 18.5787 40.9473 17.342 41.862 16.39C42.7767 15.438 44.018 14.962 45.586 14.962C46.902 14.962 47.9847 15.298 48.834 15.97C49.6833 16.6327 50.1827 17.496 50.332 18.56H48.568C48.4093 17.888 48.0733 17.3607 47.56 16.978C47.056 16.5953 46.4027 16.404 45.6 16.404C44.5267 16.404 43.6867 16.74 43.08 17.412C42.4827 18.0747 42.184 18.9707 42.184 20.1C42.184 21.2293 42.4827 22.13 43.08 22.802C43.6867 23.4647 44.5267 23.796 45.6 23.796C46.4027 23.796 47.056 23.6047 47.56 23.222C48.0733 22.8393 48.4093 22.312 48.568 21.64H50.332C50.1827 22.704 49.6833 23.572 48.834 24.244C47.9847 24.9067 46.902 25.238 45.586 25.238ZM56.3738 18.476V19.89H54.4838V25H52.9578V19.89H51.0958V18.476H56.3738ZM57.6831 18.476H60.6791C61.1178 18.476 61.4864 18.532 61.7851 18.644C62.0931 18.756 62.3171 18.91 62.4571 19.106C62.5971 19.2927 62.6951 19.4747 62.7511 19.652C62.8071 19.82 62.8351 20.002 62.8351 20.198C62.8351 20.5807 62.6858 20.9073 62.3871 21.178C62.0884 21.4487 61.7338 21.598 61.3231 21.626C61.7711 21.6447 62.1538 21.794 62.4711 22.074C62.7978 22.3447 62.9611 22.718 62.9611 23.194C62.9611 23.3807 62.9238 23.5673 62.8491 23.754C62.7838 23.9407 62.6718 24.1367 62.5131 24.342C62.3544 24.538 62.1071 24.6967 61.7711 24.818C61.4444 24.9393 61.0478 25 60.5811 25H57.6831V18.476ZM60.5531 21.15C60.7771 21.15 60.9591 21.0753 61.0991 20.926C61.2391 20.7673 61.3091 20.576 61.3091 20.352C61.3091 20.1187 61.2391 19.9273 61.0991 19.778C60.9591 19.6193 60.7771 19.54 60.5531 19.54H59.1671V21.15H60.5531ZM59.1671 22.214V23.936H60.6091C60.8424 23.936 61.0384 23.852 61.1971 23.684C61.3558 23.516 61.4351 23.3153 61.4351 23.082C61.4351 22.8487 61.3558 22.648 61.1971 22.48C61.0384 22.3027 60.8424 22.214 60.6091 22.214H59.1671ZM69.8814 24.202C69.2654 24.846 68.43 25.168 67.3754 25.168C66.3207 25.168 65.4807 24.846 64.8554 24.202C64.2394 23.5487 63.9314 22.7273 63.9314 21.738C63.9314 20.7487 64.2394 19.932 64.8554 19.288C65.4807 18.6347 66.3207 18.308 67.3754 18.308C68.43 18.308 69.2654 18.6347 69.8814 19.288C70.5067 19.932 70.8194 20.7487 70.8194 21.738C70.8194 22.7273 70.5067 23.5487 69.8814 24.202ZM65.9614 23.236C66.3067 23.6187 66.778 23.81 67.3754 23.81C67.9727 23.81 68.4394 23.6187 68.7754 23.236C69.1207 22.8533 69.2934 22.354 69.2934 21.738C69.2934 21.122 69.1207 20.6227 68.7754 20.24C68.4394 19.8573 67.9727 19.666 67.3754 19.666C66.778 19.666 66.3067 19.8573 65.9614 20.24C65.6254 20.6227 65.4574 21.122 65.4574 21.738C65.4574 22.354 65.6254 22.8533 65.9614 23.236ZM75.9087 18.308C76.842 18.308 77.5934 18.6253 78.1627 19.26C78.732 19.8853 79.0167 20.7113 79.0167 21.738C79.0167 22.746 78.718 23.572 78.1207 24.216C77.5234 24.8507 76.7534 25.168 75.8107 25.168C75.3814 25.168 74.9754 25.0747 74.5927 24.888C74.21 24.692 73.9207 24.4353 73.7247 24.118V27.94H72.1987V18.476H73.7247V19.358C73.9207 19.0407 74.2194 18.7887 74.6207 18.602C75.022 18.406 75.4514 18.308 75.9087 18.308ZM75.5867 23.81C76.1467 23.81 76.604 23.6187 76.9587 23.236C77.3134 22.844 77.4907 22.3447 77.4907 21.738C77.4907 21.1313 77.3134 20.6367 76.9587 20.254C76.604 19.862 76.1467 19.666 75.5867 19.666C75.008 19.666 74.5414 19.8573 74.1867 20.24C73.832 20.6227 73.6547 21.122 73.6547 21.738C73.6547 22.354 73.832 22.8533 74.1867 23.236C74.5414 23.6187 75.008 23.81 75.5867 23.81ZM84.8238 20.8L81.9258 24.454V25H80.3998V18.476H81.9258V22.746L84.8238 19.064V18.476H86.3498V25H84.8238V20.8ZM92.9499 18.476V19.89H91.0599V25H89.5339V19.89H87.6719V18.476H92.9499ZM98.6832 20.8L95.7852 24.454V25H94.2592V18.476H95.7852V22.746L98.6832 19.064V18.476H100.209V25H98.6832V20.8ZM108.223 25.168C107.206 25.168 106.417 24.846 105.857 24.202C105.297 23.558 105.017 22.7367 105.017 21.738C105.017 20.7487 105.311 19.932 105.899 19.288C106.487 18.6347 107.276 18.308 108.265 18.308C108.704 18.308 109.105 18.4013 109.469 18.588C109.833 18.7747 110.113 19.0313 110.309 19.358V18.476H111.835V25H110.309V24.118C110.123 24.4353 109.829 24.692 109.427 24.888C109.035 25.0747 108.634 25.168 108.223 25.168ZM108.447 23.81C109.073 23.81 109.549 23.614 109.875 23.222C110.211 22.83 110.379 22.3353 110.379 21.738C110.379 21.1407 110.211 20.646 109.875 20.254C109.549 19.862 109.073 19.666 108.447 19.666C107.859 19.666 107.393 19.862 107.047 20.254C106.711 20.6367 106.543 21.1313 106.543 21.738C106.543 22.3447 106.711 22.844 107.047 23.236C107.393 23.6187 107.859 23.81 108.447 23.81ZM113.148 23.628H113.4C114.082 23.628 114.422 23.1567 114.422 22.214V18.476H119.532V25H118.006V19.89H115.948V22.144C115.948 23.0493 115.752 23.7633 115.36 24.286C114.968 24.8087 114.418 25.07 113.708 25.07H113.148V23.628ZM121.404 18.476H122.93V20.576H124.428C125.174 20.576 125.767 20.7907 126.206 21.22C126.654 21.64 126.878 22.1627 126.878 22.788C126.878 23.3947 126.644 23.9173 126.178 24.356C125.72 24.7853 125.137 25 124.428 25H121.404V18.476ZM122.93 21.78V23.796H124.246C124.582 23.796 124.838 23.7073 125.016 23.53C125.193 23.3433 125.282 23.096 125.282 22.788C125.282 22.48 125.193 22.2373 125.016 22.06C124.838 21.8733 124.582 21.78 124.246 21.78H122.93ZM131.39 25.182C130.196 25.182 129.295 24.7573 128.688 23.908C128.082 23.0493 127.778 21.9293 127.778 20.548C127.778 18.7467 128.184 17.4073 128.996 16.53C129.808 15.6433 131.054 15.2 132.734 15.2H134.064V16.67H132.328C131.32 16.67 130.569 16.9313 130.074 17.454C129.589 17.9673 129.304 18.77 129.22 19.862C129.388 19.3673 129.701 18.9847 130.158 18.714C130.616 18.4433 131.096 18.308 131.6 18.308C132.58 18.308 133.346 18.6393 133.896 19.302C134.456 19.9553 134.736 20.7673 134.736 21.738C134.736 22.69 134.419 23.502 133.784 24.174C133.159 24.846 132.361 25.182 131.39 25.182ZM131.306 23.824C131.894 23.824 132.356 23.628 132.692 23.236C133.038 22.8347 133.21 22.34 133.21 21.752C133.21 21.164 133.038 20.674 132.692 20.282C132.356 19.8807 131.894 19.68 131.306 19.68C130.69 19.68 130.214 19.8713 129.878 20.254C129.542 20.6367 129.374 21.136 129.374 21.752C129.374 22.368 129.542 22.8673 129.878 23.25C130.214 23.6327 130.69 23.824 131.306 23.824ZM141.721 24.202C141.105 24.846 140.27 25.168 139.215 25.168C138.16 25.168 137.32 24.846 136.695 24.202C136.079 23.5487 135.771 22.7273 135.771 21.738C135.771 20.7487 136.079 19.932 136.695 19.288C137.32 18.6347 138.16 18.308 139.215 18.308C140.27 18.308 141.105 18.6347 141.721 19.288C142.346 19.932 142.659 20.7487 142.659 21.738C142.659 22.7273 142.346 23.5487 141.721 24.202ZM137.801 23.236C138.146 23.6187 138.618 23.81 139.215 23.81C139.812 23.81 140.279 23.6187 140.615 23.236C140.96 22.8533 141.133 22.354 141.133 21.738C141.133 21.122 140.96 20.6227 140.615 20.24C140.279 19.8573 139.812 19.666 139.215 19.666C138.618 19.666 138.146 19.8573 137.801 20.24C137.465 20.6227 137.297 21.122 137.297 21.738C137.297 22.354 137.465 22.8533 137.801 23.236ZM144.038 25V18.476H146.32L148.112 22.942L149.904 18.476H152.186V25H150.73V19.974L148.63 25H147.594L145.494 19.974V25H144.038Z" fill="#543C52" style="fill:#543C52;fill:color(display-p3 0.3294 0.2353 0.3216);fill-opacity:1;"/>
</svg>
