<svg width="108" height="40" viewBox="0 0 108 40" fill="none" xmlns="http://www.w3.org/2000/svg">
<rect x="0.5" y="0.5" width="107" height="39" rx="19.5" fill="white" style="fill:white;fill-opacity:1;"/>
<rect x="0.5" y="0.5" width="107" height="39" rx="19.5" stroke="#543C52" style="stroke:#543C52;stroke:color(display-p3 0.3294 0.2353 0.3216);stroke-opacity:1;"/>
<path d="M14.1667 25.8333H15.3542L23.5 17.6875L22.3125 16.5L14.1667 24.6458V25.8333ZM12.5 27.5V23.9583L23.5 12.9792C23.6667 12.8264 23.8508 12.7083 24.0525 12.625C24.2542 12.5417 24.4658 12.5 24.6875 12.5C24.9092 12.5 25.1244 12.5417 25.3333 12.625C25.5422 12.7083 25.7228 12.8333 25.875 13L27.0208 14.1667C27.1875 14.3194 27.3092 14.5 27.3858 14.7083C27.4625 14.9167 27.5006 15.125 27.5 15.3333C27.5 15.5556 27.4619 15.7675 27.3858 15.9692C27.3097 16.1708 27.1881 16.3547 27.0208 16.5208L16.0417 27.5H12.5ZM22.8958 17.1042L22.3125 16.5L23.5 17.6875L22.8958 17.1042Z" fill="#543C52" style="fill:#543C52;fill:color(display-p3 0.3294 0.2353 0.3216);fill-opacity:1;"/>
<path d="M42.17 21.864C42.17 22.4707 42.3427 22.9467 42.688 23.292C43.0333 23.628 43.4953 23.796 44.074 23.796C44.606 23.796 45.0213 23.642 45.32 23.334C45.6187 23.026 45.768 22.648 45.768 22.2C45.768 21.7147 45.6327 21.346 45.362 21.094C45.0913 20.8327 44.6387 20.702 44.004 20.702H43.276V19.274H44.018C44.578 19.274 44.9793 19.1387 45.222 18.868C45.474 18.5973 45.6 18.2613 45.6 17.86C45.6 17.4493 45.4553 17.104 45.166 16.824C44.8767 16.544 44.494 16.404 44.018 16.404C43.5047 16.404 43.08 16.5533 42.744 16.852C42.408 17.1507 42.24 17.566 42.24 18.098H40.63C40.63 17.174 40.938 16.4227 41.554 15.844C42.1793 15.256 42.982 14.962 43.962 14.962C44.886 14.962 45.656 15.2047 46.272 15.69C46.8973 16.166 47.21 16.8427 47.21 17.72C47.21 18.2707 47.0607 18.742 46.762 19.134C46.4727 19.526 46.104 19.7827 45.656 19.904C46.1507 19.9973 46.5613 20.2447 46.888 20.646C47.2147 21.0473 47.378 21.5607 47.378 22.186C47.378 23.1007 47.0793 23.838 46.482 24.398C45.8847 24.958 45.0913 25.238 44.102 25.238C43.0567 25.238 42.2027 24.9393 41.54 24.342C40.8867 23.7447 40.56 22.9187 40.56 21.864H42.17ZM52.033 25.182C50.8383 25.182 49.9377 24.7573 49.331 23.908C48.7243 23.0493 48.421 21.9293 48.421 20.548C48.421 18.7467 48.827 17.4073 49.639 16.53C50.451 15.6433 51.697 15.2 53.377 15.2H54.707V16.67H52.971C51.963 16.67 51.2117 16.9313 50.717 17.454C50.2317 17.9673 49.947 18.77 49.863 19.862C50.031 19.3673 50.3437 18.9847 50.801 18.714C51.2583 18.4433 51.739 18.308 52.243 18.308C53.223 18.308 53.9883 18.6393 54.539 19.302C55.099 19.9553 55.379 20.7673 55.379 21.738C55.379 22.69 55.0617 23.502 54.427 24.174C53.8017 24.846 53.0037 25.182 52.033 25.182ZM51.949 23.824C52.537 23.824 52.999 23.628 53.335 23.236C53.6803 22.8347 53.853 22.34 53.853 21.752C53.853 21.164 53.6803 20.674 53.335 20.282C52.999 19.8807 52.537 19.68 51.949 19.68C51.333 19.68 50.857 19.8713 50.521 20.254C50.185 20.6367 50.017 21.136 50.017 21.752C50.017 22.368 50.185 22.8673 50.521 23.25C50.857 23.6327 51.333 23.824 51.949 23.824ZM62.8118 21.402C62.8118 21.57 62.7978 21.85 62.7698 22.242H57.9258C57.9445 22.7553 58.1125 23.152 58.4298 23.432C58.7471 23.7027 59.1858 23.838 59.7458 23.838C60.4645 23.838 60.9498 23.5907 61.2018 23.096H62.7418C62.6391 23.7027 62.3078 24.202 61.7478 24.594C61.1971 24.9767 60.5298 25.168 59.7458 25.168C58.7191 25.168 57.9071 24.86 57.3098 24.244C56.7125 23.628 56.4138 22.7927 56.4138 21.738C56.4138 20.6927 56.7078 19.862 57.2958 19.246C57.8931 18.6207 58.6911 18.308 59.6898 18.308C60.6231 18.308 61.3745 18.5973 61.9438 19.176C62.5225 19.7453 62.8118 20.4873 62.8118 21.402ZM57.9258 21.08H61.3138C61.3045 20.576 61.1551 20.1887 60.8658 19.918C60.5858 19.6473 60.1845 19.512 59.6618 19.512C59.1298 19.512 58.7098 19.6567 58.4018 19.946C58.0938 20.2353 57.9351 20.6133 57.9258 21.08ZM67.9126 18.308C68.8459 18.308 69.5973 18.6253 70.1666 19.26C70.7359 19.8853 71.0206 20.7113 71.0206 21.738C71.0206 22.746 70.7219 23.572 70.1246 24.216C69.5273 24.8507 68.7573 25.168 67.8146 25.168C67.3853 25.168 66.9793 25.0747 66.5966 24.888C66.2139 24.692 65.9246 24.4353 65.7286 24.118V27.94H64.2026V18.476H65.7286V19.358C65.9246 19.0407 66.2233 18.7887 66.6246 18.602C67.0259 18.406 67.4553 18.308 67.9126 18.308ZM67.5906 23.81C68.1506 23.81 68.6079 23.6187 68.9626 23.236C69.3173 22.844 69.4946 22.3447 69.4946 21.738C69.4946 21.1313 69.3173 20.6367 68.9626 20.254C68.6079 19.862 68.1506 19.666 67.5906 19.666C67.0119 19.666 66.5453 19.8573 66.1906 20.24C65.8359 20.6227 65.6586 21.122 65.6586 21.738C65.6586 22.354 65.8359 22.8533 66.1906 23.236C66.5453 23.6187 67.0119 23.81 67.5906 23.81ZM78.3118 21.402C78.3118 21.57 78.2978 21.85 78.2698 22.242H73.4258C73.4444 22.7553 73.6124 23.152 73.9298 23.432C74.2471 23.7027 74.6858 23.838 75.2458 23.838C75.9644 23.838 76.4498 23.5907 76.7018 23.096H78.2418C78.1391 23.7027 77.8078 24.202 77.2478 24.594C76.6971 24.9767 76.0298 25.168 75.2458 25.168C74.2191 25.168 73.4071 24.86 72.8098 24.244C72.2124 23.628 71.9138 22.7927 71.9138 21.738C71.9138 20.6927 72.2078 19.862 72.7958 19.246C73.3931 18.6207 74.1911 18.308 75.1898 18.308C76.1231 18.308 76.8744 18.5973 77.4438 19.176C78.0224 19.7453 78.3118 20.4873 78.3118 21.402ZM73.4258 21.08H76.8138C76.8044 20.576 76.6551 20.1887 76.3658 19.918C76.0858 19.6473 75.6844 19.512 75.1618 19.512C74.6298 19.512 74.2098 19.6567 73.9018 19.946C73.5938 20.2353 73.4351 20.6133 73.4258 21.08ZM83.7066 18.476V19.89H81.2286V25H79.7026V18.476H83.7066ZM89.6002 18.476V19.89H87.7102V25H86.1842V19.89H84.3222V18.476H89.6002ZM95.3336 20.8L92.4356 24.454V25H90.9096V18.476H92.4356V22.746L95.3336 19.064V18.476H96.8596V25H95.3336V20.8Z" fill="#543C52" style="fill:#543C52;fill:color(display-p3 0.3294 0.2353 0.3216);fill-opacity:1;"/>
</svg>
